<?xml version="1.0" encoding="UTF-8"?>
<svg id="Layer_1" data-name="Layer 1" xmlns="http://www.w3.org/2000/svg" viewBox="0 0 288 288">
  <defs>
    <style>
      .cls-1 {
        fill: #122c5f;
      }
    </style>
  </defs>
  <path class="cls-1" d="M246.88,83.45l-99.55-58.12c-2.06-1.21-4.62-1.19-6.66,0l-99.56,58.12c-2.02,1.18-3.27,3.36-3.27,5.71v108.95c0,2.34,1.25,4.52,3.25,5.69l99.55,58.86c1.04.61,2.2.91,3.37.91s2.32-.3,3.36-.91l99.55-58.86c2-1.18,3.25-3.36,3.25-5.69v-108.95c0-2.35-1.26-4.53-3.29-5.71ZM132.91,165.8l-33.86-19.19c-2.07-1.18-4.55-1.16-6.61.04-2.06,1.19-3.29,3.34-3.29,5.71v13.35c0,2.37,1.3,4.59,3.37,5.76l39.11,22.12v38.88l-72.37-41.96v-82.38l73.63,42.69v14.97ZM144.01,132.84l-71.65-42.38,71.63-40.76,71.63,40.76-71.61,42.38ZM195.49,171.47c2.06-1.18,3.36-3.39,3.36-5.76v-13.35c0-2.37-1.23-4.52-3.29-5.71s-4.53-1.21-6.61-.04l-33.86,19.19v-14.97l73.63-42.69v82.38l-72.37,41.96v-38.88l39.13-22.12Z"/>
</svg>